#N canvas 218 94 842 680 10;
#X obj 40 384 dac~;
#X obj 41 117 *~ 441;
#X obj 41 91 osc~ 212;
#X obj 125 270 line~;
#X obj 39 258 *~;
#X msg 205 258 0 50;
#X obj 213 230 bng 15 250 50 0 empty empty empty 17 7 0 10 -262144
-1 -1;
#X obj 208 173 bng 15 250 50 0 empty empty empty 17 7 0 10 -262144
-1 -1;
#X obj 51 9 osc~ 5;
#X obj 50 31 *~ 200;
#X obj 50 57 +~ 212;
#X obj 41 151 +~;
#X obj 41 178 osc~;
#X obj 151 91 samphold~;
#X obj 246 61 phasor~ 2;
#X obj 150 117 *~ 2000;
#X obj 150 136 +~ 500;
#X obj 221 116 tgl 15 0 empty empty empty 17 7 0 10 -262144 -1 -1 1
1;
#X obj 151 61 phasor~ 0.57;
#X obj 220 144 metro 150;
#X obj 208 198 delay 30;
#X msg 138 204 0.8 10;
#X obj 219 93 loadbang;
#X obj 40 327 *~ 0.5;
#X connect 1 0 11 0;
#X connect 2 0 1 0;
#X connect 3 0 4 1;
#X connect 4 0 23 0;
#X connect 5 0 3 0;
#X connect 6 0 5 0;
#X connect 7 0 21 0;
#X connect 7 0 20 0;
#X connect 8 0 9 0;
#X connect 9 0 10 0;
#X connect 10 0 2 0;
#X connect 11 0 12 0;
#X connect 12 0 4 0;
#X connect 13 0 15 0;
#X connect 14 0 13 1;
#X connect 15 0 16 0;
#X connect 16 0 11 1;
#X connect 17 0 19 0;
#X connect 18 0 13 0;
#X connect 19 0 7 0;
#X connect 20 0 6 0;
#X connect 21 0 3 0;
#X connect 22 0 17 0;
#X connect 23 0 0 0;
#X connect 23 0 0 1;
